<svg xmlns="http://www.w3.org/2000/svg" style="display: none;"><symbol id="rec" viewBox="0 0 341.333 341.333"><title>rec</title><path d="M170.667,0C76.41,0,0,76.41,0,170.667s76.41,170.667,170.667,170.667s170.667-76.41,170.667-170.667S264.923,0,170.667,0z M170.667,298.667c-70.692,0-128-57.308-128-128s57.308-128,128-128s128,57.308,128,128S241.359,298.667,170.667,298.667z"/></symbol><symbol id="square" viewBox="0 0 24 24"><title>square</title><g><path d="m21.5 24h-19c-1.379 0-2.5-1.122-2.5-2.5v-19c0-1.378 1.121-2.5 2.5-2.5h19c1.379 0 2.5 1.122 2.5 2.5v19c0 1.378-1.121 2.5-2.5 2.5zm-19-23c-.827 0-1.5.673-1.5 1.5v19c0 .827.673 1.5 1.5 1.5h19c.827 0 1.5-.673 1.5-1.5v-19c0-.827-.673-1.5-1.5-1.5z"/></g><g><path d="m16.5 8h-9c-.276 0-.5-.224-.5-.5s.224-.5.5-.5h9c.276 0 .5.224.5.5s-.224.5-.5.5z"/></g><g><path d="m16.5 12.5h-9c-.276 0-.5-.224-.5-.5s.224-.5.5-.5h9c.276 0 .5.224.5.5s-.224.5-.5.5z"/></g><g><path d="m16.5 17h-9c-.276 0-.5-.224-.5-.5s.224-.5.5-.5h9c.276 0 .5.224.5.5s-.224.5-.5.5z"/></g></symbol><symbol id="remove" viewBox="0 0 298.667 298.667"><title>remove</title><rect y="128" width="298.667" height="42.667"/></symbol></svg>